# xmcd
#
# Track frame offsets: 
#        150
#        14781
#        29148
#        40740
#        54544
#        65124
#        82866
#        100083
#        114636
#        126341
#        146220
#        163663
#        174354
#
# Disc length: 2566 seconds
#
# Revision: 0
# Processed by: cddbd v1.5.2PL0 Copyright (c) Steve Scherf et al.
# Submitted via: ExactAudioCopy v0.99pb5
#
DISCID=bb0a040d
DTITLE=Heikki Kuula - Punainen Planeetta
DYEAR=2008
DGENRE=Rap
TTITLE0=ASEnne
TTITLE1=Nukkumatti Korjaa
TTITLE2=Ainut Lapsi
TTITLE3=Popcorn
TTITLE4=Runosuolihuuhtelu
TTITLE5=Isi Itkee [Heikki-mix]
TTITLE6=Niille Naisille
TTITLE7=Mun Pojan Mutsi
TTITLE8=Mielikuvittaja
TTITLE9=Silmäys
TTITLE10=Täysi Kyy
TTITLE11=Kakkulat Kaupan
TTITLE12=ASEnne [Remix]
EXTD=
EXTT0=
EXTT1=
EXTT2=
EXTT3=
EXTT4=
EXTT5=
EXTT6=
EXTT7=
EXTT8=
EXTT9=
EXTT10=
EXTT11=
EXTT12=
PLAYORDER=
